<svg width="60" height="57" viewBox="0 0 60 57" fill="none" xmlns="http://www.w3.org/2000/svg">
<path d="M44.9351 55.5087C44.8347 52.5914 42.1212 46.1372 32.1919 43.0358C31.597 42.8499 30.9792 42.747 30.3621 42.6593M44.0049 20.088C42.7646 26.0536 29.6876 31.4987 20.3208 32.827M44.0049 20.088C44.625 17.7059 44.0669 12.6932 36.8734 11.6989C31.2836 10.9263 22.8353 18.3588 16.9701 24.7241C14.0209 27.9248 11.1522 31.8049 6.90601 30.8498C4.31224 30.2663 2.27573 27.175 1.73123 24.5727C1.12532 21.6771 1.5204 17.4459 5.24685 12.631C7.67305 9.12775 15.3465 3.31023 21.6803 2.06697C22.6179 1.88292 23.5458 1.75186 24.4551 1.66319C32.8787 0.841821 41.7506 3.13176 48.4817 8.26242C50.0571 9.46324 51.6002 10.8983 52.9968 12.631C54.2355 14.1679 56.0629 17.178 56.9613 20.9009C58.4512 27.0751 57.114 34.3004 52.5838 38.7521C50.8512 40.4547 48.4684 41.9391 45.2452 42.7697M44.0049 20.088C39.8675 21.1669 37.8212 21.4771 35.4326 22.0394C31.5665 22.9497 28.0171 24.864 24.6855 27.0264C24.486 27.1559 24.2935 27.2825 24.1089 27.4066C22.2312 28.6683 20.9011 30.6405 20.3208 32.827M20.3208 32.827C19.5614 35.6887 20.5073 37.8138 22.2172 39.3519M22.2172 39.3519L41.7123 31.7237C44.0035 30.8272 46.9852 30.4114 47.7162 32.7607C48.2723 34.5476 46.2016 36.0032 44.4764 36.7282L30.3621 42.6593M22.2172 39.3519C24.3521 41.2723 27.6779 42.2777 30.3621 42.6593" stroke="#75B2AB" stroke-width="3" stroke-linecap="round"/>
</svg>
