<svg width="279" height="57" viewBox="0 0 279 57" fill="none" xmlns="http://www.w3.org/2000/svg">
<path d="M44.935 55.5087C44.8346 52.5914 42.1211 46.1372 32.1918 43.0358C31.5969 42.8499 30.979 42.747 30.3619 42.6593M44.0048 20.088C42.7645 26.0536 29.6875 31.4987 20.3207 32.827M44.0048 20.088C44.6249 17.7059 44.0668 12.6932 36.8733 11.6989C31.2834 10.9263 22.8352 18.3588 16.9699 24.7241C14.0207 27.9248 11.152 31.8049 6.90589 30.8498C4.31212 30.2663 2.27561 27.175 1.7311 24.5727C1.1252 21.6771 1.52028 17.4459 5.24673 12.631C7.67293 9.12775 15.3464 3.31023 21.6801 2.06697C22.6178 1.88292 23.5456 1.75186 24.455 1.66319C32.8785 0.841821 41.7505 3.13176 48.4815 8.26242C50.0569 9.46324 51.6001 10.8983 52.9966 12.631C54.2354 14.1679 56.0628 17.178 56.9612 20.9009C58.4511 27.0751 57.1139 34.3004 52.5837 38.7521C50.8511 40.4547 48.4683 41.9391 45.245 42.7697M44.0048 20.088C39.8674 21.1669 37.821 21.4771 35.4325 22.0394C31.5663 22.9497 28.017 24.864 24.6854 27.0264C24.4859 27.1559 24.2934 27.2825 24.1088 27.4066C22.2311 28.6683 20.901 30.6405 20.3207 32.827M20.3207 32.827C19.5613 35.6887 20.5072 37.8138 22.217 39.3519M22.217 39.3519L41.7121 31.7237C44.0034 30.8272 46.9851 30.4114 47.7161 32.7607C48.2722 34.5476 46.2015 36.0032 44.4763 36.7282L30.3619 42.6593M22.217 39.3519C24.3519 41.2723 27.6777 42.2777 30.3619 42.6593" stroke="#75B2AB" stroke-width="3" stroke-linecap="round"/>
<path d="M104.3 43.1487C101.553 43.1487 99.2067 42.522 97.26 41.2687C95.3133 40.0153 93.8067 38.282 92.74 36.0687C91.7 33.8287 91.18 31.2553 91.18 28.3487C91.18 25.4953 91.7133 22.9487 92.78 20.7087C93.8467 18.4687 95.38 16.7087 97.38 15.4287C99.4067 14.122 101.833 13.4687 104.66 13.4687C107.113 13.4687 109.18 13.882 110.86 14.7087C112.567 15.5087 113.927 16.6553 114.94 18.1487C115.953 19.642 116.66 21.402 117.06 23.4287L110.78 23.7087C110.487 22.1353 109.86 20.8953 108.9 19.9887C107.967 19.0553 106.567 18.5887 104.7 18.5887C103.073 18.5887 101.713 19.0153 100.62 19.8687C99.5533 20.722 98.7533 21.882 98.22 23.3487C97.7133 24.8153 97.46 26.482 97.46 28.3487C97.46 30.242 97.7133 31.922 98.22 33.3887C98.7533 34.8287 99.5533 35.962 100.62 36.7887C101.713 37.6153 103.113 38.0287 104.82 38.0287C106.073 38.0287 107.153 37.7753 108.06 37.2687C108.993 36.762 109.713 36.0687 110.22 35.1887C110.753 34.3087 111.073 33.3087 111.18 32.1887H104.7V27.7487H117.14V42.5087H113.38L113.06 36.4287L113.78 36.7487C113.513 38.002 112.927 39.1087 112.02 40.0687C111.113 41.0287 109.993 41.7887 108.66 42.3487C107.353 42.882 105.9 43.1487 104.3 43.1487ZM131.702 42.9887C129.515 42.9887 127.609 42.5353 125.982 41.6287C124.382 40.6953 123.129 39.3887 122.222 37.7087C121.342 36.0287 120.902 34.0553 120.902 31.7887C120.902 29.522 121.342 27.562 122.222 25.9087C123.129 24.2287 124.382 22.922 125.982 21.9887C127.582 21.0553 129.475 20.5887 131.662 20.5887C133.795 20.5887 135.649 21.0553 137.222 21.9887C138.795 22.922 140.009 24.2553 140.862 25.9887C141.742 27.722 142.182 29.7887 142.182 32.1887V33.3887H127.102C127.182 35.0953 127.635 36.362 128.462 37.1887C129.315 38.0153 130.435 38.4287 131.822 38.4287C132.835 38.4287 133.675 38.2153 134.342 37.7887C135.035 37.362 135.529 36.7087 135.822 35.8287L141.862 36.1887C141.302 38.322 140.115 39.9887 138.302 41.1887C136.489 42.3887 134.289 42.9887 131.702 42.9887ZM127.102 29.7087H136.022C135.942 28.1353 135.502 26.962 134.702 26.1887C133.929 25.4153 132.915 25.0287 131.662 25.0287C130.409 25.0287 129.369 25.442 128.542 26.2687C127.742 27.0687 127.262 28.2153 127.102 29.7087ZM145.89 42.5087V21.0687H151.29L151.53 27.3487L150.77 27.1487C150.983 25.5487 151.41 24.2687 152.05 23.3087C152.717 22.3487 153.543 21.6553 154.53 21.2287C155.517 20.802 156.597 20.5887 157.77 20.5887C159.317 20.5887 160.623 20.922 161.69 21.5887C162.783 22.2553 163.61 23.202 164.17 24.4287C164.757 25.6287 165.05 27.0553 165.05 28.7087V42.5087H159.05V30.7087C159.05 29.562 158.957 28.5887 158.77 27.7887C158.583 26.9887 158.25 26.3887 157.77 25.9887C157.29 25.562 156.623 25.3487 155.77 25.3487C154.517 25.3487 153.557 25.8153 152.89 26.7487C152.223 27.6553 151.89 28.9753 151.89 30.7087V42.5087H145.89Z" fill="black"/>
<path d="M170.663 42.5087V14.1087H176.743V40.8687L173.383 37.3887H189.823V42.5087H170.663ZM202.366 42.9887C200.179 42.9887 198.273 42.5353 196.646 41.6287C195.046 40.6953 193.793 39.3887 192.886 37.7087C192.006 36.0287 191.566 34.0553 191.566 31.7887C191.566 29.522 192.006 27.562 192.886 25.9087C193.793 24.2287 195.046 22.922 196.646 21.9887C198.246 21.0553 200.139 20.5887 202.326 20.5887C204.459 20.5887 206.313 21.0553 207.886 21.9887C209.459 22.922 210.673 24.2553 211.526 25.9887C212.406 27.722 212.846 29.7887 212.846 32.1887V33.3887H197.766C197.846 35.0953 198.299 36.362 199.126 37.1887C199.979 38.0153 201.099 38.4287 202.486 38.4287C203.499 38.4287 204.339 38.2153 205.006 37.7887C205.699 37.362 206.193 36.7087 206.486 35.8287L212.526 36.1887C211.966 38.322 210.779 39.9887 208.966 41.1887C207.153 42.3887 204.953 42.9887 202.366 42.9887ZM197.766 29.7087H206.686C206.606 28.1353 206.166 26.962 205.366 26.1887C204.593 25.4153 203.579 25.0287 202.326 25.0287C201.073 25.0287 200.033 25.442 199.206 26.2687C198.406 27.0687 197.926 28.2153 197.766 29.7087ZM223.109 42.9887C220.896 42.9887 219.083 42.482 217.669 41.4687C216.283 40.4287 215.589 38.9887 215.589 37.1487C215.589 35.2553 216.176 33.802 217.349 32.7887C218.549 31.7487 220.309 30.9887 222.629 30.5087L229.549 29.1487C229.549 27.762 229.229 26.722 228.589 26.0287C227.976 25.3087 227.083 24.9487 225.909 24.9487C224.763 24.9487 223.869 25.2153 223.229 25.7487C222.589 26.2553 222.176 27.0153 221.989 28.0287L215.949 27.7487C216.349 25.402 217.403 23.6287 219.109 22.4287C220.843 21.202 223.109 20.5887 225.909 20.5887C229.109 20.5887 231.509 21.3487 233.109 22.8687C234.736 24.3887 235.549 26.6153 235.549 29.5487V36.8687C235.549 37.482 235.643 37.8953 235.829 38.1087C236.043 38.2953 236.349 38.3887 236.749 38.3887H237.349V42.5087C237.163 42.562 236.856 42.6153 236.429 42.6687C236.029 42.722 235.629 42.7487 235.229 42.7487C234.376 42.7487 233.576 42.602 232.829 42.3087C232.109 42.0153 231.523 41.522 231.069 40.8287C230.616 40.1087 230.389 39.0953 230.389 37.7887L230.909 38.1887C230.643 39.1487 230.163 39.9887 229.469 40.7087C228.803 41.4287 227.923 41.9887 226.829 42.3887C225.763 42.7887 224.523 42.9887 223.109 42.9887ZM224.549 38.8687C225.536 38.8687 226.403 38.682 227.149 38.3087C227.896 37.9087 228.483 37.3353 228.909 36.5887C229.336 35.842 229.549 34.962 229.549 33.9487V32.9087L224.669 33.9487C223.709 34.1353 222.976 34.4553 222.469 34.9087C221.989 35.3353 221.749 35.8953 221.749 36.5887C221.749 37.3087 221.989 37.8687 222.469 38.2687C222.949 38.6687 223.643 38.8687 224.549 38.8687ZM240.499 42.5087V21.0687H246.179L246.379 27.3087L245.939 27.1887C246.286 25.0287 246.899 23.4687 247.779 22.5087C248.659 21.5487 249.873 21.0687 251.419 21.0687H253.379V26.0287H251.419C250.299 26.0287 249.379 26.1753 248.659 26.4687C247.939 26.762 247.393 27.2287 247.019 27.8687C246.673 28.5087 246.499 29.3753 246.499 30.4687V42.5087H240.499ZM256.359 42.5087V21.0687H261.759L261.999 27.3487L261.239 27.1487C261.452 25.5487 261.879 24.2687 262.519 23.3087C263.185 22.3487 264.012 21.6553 264.999 21.2287C265.985 20.802 267.065 20.5887 268.239 20.5887C269.785 20.5887 271.092 20.922 272.159 21.5887C273.252 22.2553 274.079 23.202 274.639 24.4287C275.225 25.6287 275.519 27.0553 275.519 28.7087V42.5087H269.519V30.7087C269.519 29.562 269.425 28.5887 269.239 27.7887C269.052 26.9887 268.719 26.3887 268.239 25.9887C267.759 25.562 267.092 25.3487 266.239 25.3487C264.985 25.3487 264.025 25.8153 263.359 26.7487C262.692 27.6553 262.359 28.9753 262.359 30.7087V42.5087H256.359Z" fill="#75B2AB"/>
</svg>
